<svg xmlns="http://www.w3.org/2000/svg" xmlns:xlink="http://www.w3.org/1999/xlink" viewBox="0 0 200 200">
    <defs>
        <linearGradient id="b" x1="88.353%" x2="10.836%" y1="88.84%" y2="14.234%">
            <stop offset="0%" stop-color="#FF0844"/>
            <stop offset="100%" stop-color="#FF7348"/>
        </linearGradient>
        <path id="a" d="M100.066 0c55.229 0 99.696 44.467 99.696 99.704 0 55.237-44.467 99.704-99.696 99.704C44.828 199.408.36 154.941.36 99.704.36 44.467 44.828 0 100.066 0z"/>
    </defs>
    <g fill="none" fill-rule="evenodd">
        <g transform="matrix(-1 0 0 1 200 0)">
            <mask id="c" fill="#fff">
                <use xlink:href="#a"/>
            </mask>
            <use fill="url(#b)" fill-rule="nonzero" xlink:href="#a"/>
            <path fill="#E72741" d="M149.913 120.879l-38.926 36.82-38.926 36.82-51.99-.036-33.796-54.504 91.876-88.9-9.876 35.588 9.876 30.21 34.17 13.827z" mask="url(#c)"/>
        </g>
        <g fill="#FFF" fill-rule="nonzero">
            <path d="M163.002 145.316l-30.608-30.61a58.916 58.916 0 0 1-17.688 17.686l30.61 30.61c4.886 4.886 12.81 4.886 17.685 0 4.887-4.877 4.887-12.8 0-17.686zM133.333 83.334c0-27.612-22.387-50-50-50-27.611 0-50 22.388-50 50s22.389 50 50 50c27.613 0 50-22.388 50-50zm-50 37.499c-20.678 0-37.5-16.82-37.5-37.499 0-20.679 16.822-37.5 37.5-37.5 20.679 0 37.501 16.821 37.501 37.5 0 20.68-16.822 37.499-37.5 37.499z"/>
            <path d="M54.902 83.333h8.122c0-11.197 9.112-20.308 20.31-20.308v-8.123c-15.676 0-28.432 12.756-28.432 28.431z"/>
        </g>
    </g>
</svg>
